<svg xmlns="http://www.w3.org/2000/svg" width="1080" height="1920" viewBox="0 0 1080 1920" role="img"><defs><linearGradient id="sky" x2="0" y2="1"><stop offset="0" stop-color="#060618"/><stop offset=".62" stop-color="#361e66"/><stop offset="1" stop-color="#c15ee1"/></linearGradient><radialGradient id="glow"><stop stop-color="#c15ee1" stop-opacity=".55"/><stop offset="1" stop-color="#c15ee1" stop-opacity="0"/></radialGradient><filter id="blur"><feGaussianBlur stdDeviation="25"/></filter><filter id="soft"><feGaussianBlur stdDeviation="5"/></filter></defs><rect width="1080" height="1920" fill="url(#sky)"/><rect width="1080" height="1920" fill="url(#glow)" opacity=".25"/><circle cx="113" cy="383" r="25" fill="#c15ee1" opacity="0.23" filter="url(#blur)"/><circle cx="524" cy="408" r="59" fill="#c15ee1" opacity="0.07" filter="url(#blur)"/><circle cx="1122" cy="147" r="17" fill="#c15ee1" opacity="0.14" filter="url(#blur)"/><circle cx="1135" cy="676" r="30" fill="#c15ee1" opacity="0.12" filter="url(#blur)"/><circle cx="925" cy="1503" r="28" fill="#c15ee1" opacity="0.07" filter="url(#blur)"/><circle cx="69" cy="91" r="42" fill="#c15ee1" opacity="0.12" filter="url(#blur)"/><circle cx="947" cy="1484" r="25" fill="#c15ee1" opacity="0.19" filter="url(#blur)"/><circle cx="290" cy="660" r="31" fill="#c15ee1" opacity="0.10" filter="url(#blur)"/><circle cx="185" cy="1009" r="60" fill="#c15ee1" opacity="0.23" filter="url(#blur)"/><circle cx="358" cy="1259" r="69" fill="#c15ee1" opacity="0.10" filter="url(#blur)"/><circle cx="107" cy="1270" r="62" fill="#c15ee1" opacity="0.17" filter="url(#blur)"/><circle cx="1086" cy="1431" r="73" fill="#c15ee1" opacity="0.17" filter="url(#blur)"/><circle cx="-63" cy="213" r="72" fill="#c15ee1" opacity="0.12" filter="url(#blur)"/><circle cx="83" cy="83" r="14" fill="#c15ee1" opacity="0.19" filter="url(#blur)"/><circle cx="1079" cy="1251" r="16" fill="#c15ee1" opacity="0.10" filter="url(#blur)"/><circle cx="435" cy="1229" r="48" fill="#c15ee1" opacity="0.14" filter="url(#blur)"/><circle cx="689" cy="1318" r="32" fill="#c15ee1" opacity="0.19" filter="url(#blur)"/><circle cx="1032" cy="793" r="69" fill="#c15ee1" opacity="0.11" filter="url(#blur)"/><circle cx="625" cy="1524" r="38" fill="#c15ee1" opacity="0.21" filter="url(#blur)"/><circle cx="1033" cy="1217" r="68" fill="#c15ee1" opacity="0.17" filter="url(#blur)"/><circle cx="552" cy="612" r="34" fill="#c15ee1" opacity="0.22" filter="url(#blur)"/><circle cx="973" cy="213" r="41" fill="#c15ee1" opacity="0.17" filter="url(#blur)"/><circle cx="179" cy="646" r="21" fill="#c15ee1" opacity="0.18" filter="url(#blur)"/><circle cx="507" cy="395" r="71" fill="#c15ee1" opacity="0.12" filter="url(#blur)"/><circle cx="634" cy="681" r="35" fill="#c15ee1" opacity="0.20" filter="url(#blur)"/><circle cx="299" cy="1710" r="27" fill="#c15ee1" opacity="0.21" filter="url(#blur)"/><circle cx="-9" cy="935" r="34" fill="#c15ee1" opacity="0.20" filter="url(#blur)"/><circle cx="550" cy="903" r="62" fill="#c15ee1" opacity="0.23" filter="url(#blur)"/><circle cx="425" cy="140" r="35" fill="#c15ee1" opacity="0.16" filter="url(#blur)"/><circle cx="-85" cy="1464" r="33" fill="#c15ee1" opacity="0.22" filter="url(#blur)"/><circle cx="766" cy="1655" r="50" fill="#c15ee1" opacity="0.12" filter="url(#blur)"/><circle cx="1065" cy="1203" r="41" fill="#c15ee1" opacity="0.10" filter="url(#blur)"/><circle cx="691" cy="659" r="63" fill="#c15ee1" opacity="0.17" filter="url(#blur)"/><circle cx="383" cy="682" r="17" fill="#c15ee1" opacity="0.21" filter="url(#blur)"/><circle cx="306" cy="856" r="71" fill="#c15ee1" opacity="0.13" filter="url(#blur)"/><circle cx="557" cy="1384" r="49" fill="#c15ee1" opacity="0.08" filter="url(#blur)"/><circle cx="117" cy="154" r="39" fill="#c15ee1" opacity="0.19" filter="url(#blur)"/><circle cx="1058" cy="522" r="71" fill="#c15ee1" opacity="0.19" filter="url(#blur)"/><circle cx="147" cy="670" r="44" fill="#c15ee1" opacity="0.12" filter="url(#blur)"/><circle cx="268" cy="1534" r="37" fill="#c15ee1" opacity="0.23" filter="url(#blur)"/><circle cx="690" cy="1542" r="15" fill="#c15ee1" opacity="0.12" filter="url(#blur)"/><circle cx="483" cy="463" r="30" fill="#c15ee1" opacity="0.08" filter="url(#blur)"/><circle cx="955" cy="502" r="42" fill="#c15ee1" opacity="0.20" filter="url(#blur)"/><circle cx="823" cy="123" r="37" fill="#c15ee1" opacity="0.22" filter="url(#blur)"/><circle cx="600" cy="743" r="36" fill="#c15ee1" opacity="0.23" filter="url(#blur)"/><circle cx="524" cy="153" r="28" fill="#c15ee1" opacity="0.11" filter="url(#blur)"/><circle cx="411" cy="597" r="66" fill="#c15ee1" opacity="0.16" filter="url(#blur)"/><circle cx="119" cy="1027" r="27" fill="#c15ee1" opacity="0.11" filter="url(#blur)"/><circle cx="870" cy="622" r="67" fill="#c15ee1" opacity="0.10" filter="url(#blur)"/><circle cx="517" cy="1239" r="42" fill="#c15ee1" opacity="0.15" filter="url(#blur)"/><circle cx="1108" cy="415" r="27" fill="#c15ee1" opacity="0.21" filter="url(#blur)"/><circle cx="-35" cy="1530" r="46" fill="#c15ee1" opacity="0.10" filter="url(#blur)"/><circle cx="757" cy="724" r="44" fill="#c15ee1" opacity="0.18" filter="url(#blur)"/><circle cx="155" cy="559" r="74" fill="#c15ee1" opacity="0.22" filter="url(#blur)"/><circle cx="935" cy="476" r="54" fill="#c15ee1" opacity="0.10" filter="url(#blur)"/><circle cx="288" cy="1100" r="2" fill="#fff" opacity="0.36"/><circle cx="629" cy="851" r="2" fill="#fff" opacity="0.34"/><circle cx="1043" cy="633" r="3" fill="#fff" opacity="0.48"/><circle cx="912" cy="739" r="2" fill="#fff" opacity="0.60"/><circle cx="475" cy="1426" r="2" fill="#fff" opacity="0.27"/><circle cx="1044" cy="1129" r="2" fill="#fff" opacity="0.24"/><circle cx="120" cy="1124" r="2" fill="#fff" opacity="0.34"/><circle cx="835" cy="679" r="3" fill="#fff" opacity="0.64"/><circle cx="334" cy="1413" r="2" fill="#fff" opacity="0.70"/><circle cx="965" cy="394" r="3" fill="#fff" opacity="0.47"/><circle cx="49" cy="604" r="2" fill="#fff" opacity="0.33"/><circle cx="551" cy="1205" r="1" fill="#fff" opacity="0.60"/><circle cx="1002" cy="717" r="1" fill="#fff" opacity="0.59"/><circle cx="248" cy="1667" r="3" fill="#fff" opacity="0.38"/><circle cx="857" cy="291" r="3" fill="#fff" opacity="0.67"/><circle cx="470" cy="1173" r="2" fill="#fff" opacity="0.27"/><circle cx="173" cy="1695" r="3" fill="#fff" opacity="0.48"/><circle cx="979" cy="1472" r="1" fill="#fff" opacity="0.60"/><circle cx="330" cy="560" r="2" fill="#fff" opacity="0.35"/><circle cx="796" cy="1104" r="2" fill="#fff" opacity="0.64"/><circle cx="748" cy="517" r="2" fill="#fff" opacity="0.43"/><circle cx="520" cy="751" r="3" fill="#fff" opacity="0.44"/><circle cx="583" cy="1055" r="3" fill="#fff" opacity="0.45"/><circle cx="810" cy="1491" r="3" fill="#fff" opacity="0.60"/><circle cx="757" cy="1682" r="1" fill="#fff" opacity="0.38"/><circle cx="155" cy="1376" r="2" fill="#fff" opacity="0.57"/><circle cx="64" cy="806" r="2" fill="#fff" opacity="0.30"/><circle cx="241" cy="1113" r="2" fill="#fff" opacity="0.30"/><circle cx="967" cy="127" r="1" fill="#fff" opacity="0.50"/><circle cx="214" cy="863" r="3" fill="#fff" opacity="0.39"/><circle cx="117" cy="137" r="1" fill="#fff" opacity="0.22"/><circle cx="622" cy="748" r="1" fill="#fff" opacity="0.27"/><circle cx="1042" cy="1140" r="2" fill="#fff" opacity="0.28"/><circle cx="399" cy="1479" r="2" fill="#fff" opacity="0.76"/><circle cx="111" cy="778" r="2" fill="#fff" opacity="0.63"/><circle cx="422" cy="1485" r="2" fill="#fff" opacity="0.57"/><circle cx="914" cy="674" r="3" fill="#fff" opacity="0.71"/><circle cx="107" cy="1363" r="2" fill="#fff" opacity="0.73"/><circle cx="880" cy="583" r="3" fill="#fff" opacity="0.63"/><circle cx="571" cy="1237" r="1" fill="#fff" opacity="0.53"/><circle cx="63" cy="1660" r="1" fill="#fff" opacity="0.42"/><circle cx="838" cy="30" r="3" fill="#fff" opacity="0.28"/><circle cx="891" cy="837" r="2" fill="#fff" opacity="0.69"/><circle cx="618" cy="252" r="2" fill="#fff" opacity="0.28"/><circle cx="965" cy="1516" r="1" fill="#fff" opacity="0.77"/><circle cx="278" cy="290" r="1" fill="#fff" opacity="0.67"/><circle cx="732" cy="971" r="3" fill="#fff" opacity="0.62"/><circle cx="106" cy="1227" r="2" fill="#fff" opacity="0.48"/><circle cx="56" cy="1264" r="2" fill="#fff" opacity="0.24"/><circle cx="942" cy="1157" r="1" fill="#fff" opacity="0.57"/><circle cx="308" cy="474" r="3" fill="#fff" opacity="0.49"/><circle cx="967" cy="422" r="2" fill="#fff" opacity="0.29"/><circle cx="538" cy="238" r="3" fill="#fff" opacity="0.74"/><circle cx="104" cy="1561" r="1" fill="#fff" opacity="0.58"/><circle cx="217" cy="805" r="2" fill="#fff" opacity="0.39"/><circle cx="576" cy="368" r="3" fill="#fff" opacity="0.67"/><circle cx="221" cy="1600" r="1" fill="#fff" opacity="0.76"/><circle cx="519" cy="465" r="3" fill="#fff" opacity="0.60"/><circle cx="1025" cy="107" r="1" fill="#fff" opacity="0.74"/><circle cx="390" cy="984" r="2" fill="#fff" opacity="0.52"/><circle cx="172" cy="1653" r="2" fill="#fff" opacity="0.50"/><circle cx="347" cy="570" r="1" fill="#fff" opacity="0.76"/><circle cx="479" cy="517" r="2" fill="#fff" opacity="0.24"/><circle cx="33" cy="1487" r="3" fill="#fff" opacity="0.64"/><circle cx="877" cy="747" r="3" fill="#fff" opacity="0.40"/><circle cx="760" cy="1237" r="1" fill="#fff" opacity="0.51"/><circle cx="67" cy="1083" r="2" fill="#fff" opacity="0.42"/><circle cx="746" cy="504" r="2" fill="#fff" opacity="0.48"/><circle cx="488" cy="1602" r="3" fill="#fff" opacity="0.29"/><circle cx="28" cy="391" r="1" fill="#fff" opacity="0.23"/><circle cx="144" cy="1470" r="3" fill="#fff" opacity="0.55"/><circle cx="507" cy="1587" r="3" fill="#fff" opacity="0.22"/><circle cx="345" cy="409" r="2" fill="#fff" opacity="0.33"/><circle cx="79" cy="37" r="1" fill="#fff" opacity="0.32"/><circle cx="259" cy="277" r="2" fill="#fff" opacity="0.41"/><circle cx="599" cy="725" r="1" fill="#fff" opacity="0.55"/><circle cx="106" cy="1354" r="3" fill="#fff" opacity="0.74"/><circle cx="589" cy="973" r="2" fill="#fff" opacity="0.36"/><circle cx="518" cy="550" r="1" fill="#fff" opacity="0.59"/><circle cx="733" cy="853" r="2" fill="#fff" opacity="0.62"/><circle cx="146" cy="520" r="1" fill="#fff" opacity="0.34"/><circle cx="347" cy="1104" r="2" fill="#fff" opacity="0.63"/><circle cx="869" cy="892" r="3" fill="#fff" opacity="0.47"/><circle cx="413" cy="1169" r="2" fill="#fff" opacity="0.74"/><circle cx="849" cy="407" r="1" fill="#fff" opacity="0.47"/><circle cx="696" cy="947" r="2" fill="#fff" opacity="0.65"/><circle cx="390" cy="976" r="3" fill="#fff" opacity="0.31"/><circle cx="304" cy="845" r="2" fill="#fff" opacity="0.33"/><circle cx="845" cy="1041" r="2" fill="#fff" opacity="0.57"/><circle cx="660" cy="155" r="3" fill="#fff" opacity="0.74"/><circle cx="727" cy="1659" r="2" fill="#fff" opacity="0.44"/><circle cx="473" cy="938" r="1" fill="#fff" opacity="0.68"/><circle cx="461" cy="87" r="2" fill="#fff" opacity="0.28"/><circle cx="392" cy="1220" r="1" fill="#fff" opacity="0.54"/><circle cx="188" cy="1493" r="3" fill="#fff" opacity="0.35"/><circle cx="716" cy="903" r="3" fill="#fff" opacity="0.45"/><circle cx="1005" cy="163" r="2" fill="#fff" opacity="0.39"/><circle cx="455" cy="589" r="3" fill="#fff" opacity="0.52"/><circle cx="301" cy="437" r="2" fill="#fff" opacity="0.25"/><circle cx="884" cy="509" r="1" fill="#fff" opacity="0.24"/><circle cx="928" cy="1748" r="1" fill="#fff" opacity="0.76"/><circle cx="66" cy="1376" r="2" fill="#fff" opacity="0.58"/><circle cx="943" cy="1773" r="2" fill="#fff" opacity="0.21"/><circle cx="166" cy="1745" r="3" fill="#fff" opacity="0.51"/><circle cx="312" cy="1501" r="2" fill="#fff" opacity="0.71"/><circle cx="547" cy="878" r="2" fill="#fff" opacity="0.34"/><circle cx="662" cy="1414" r="2" fill="#fff" opacity="0.51"/><circle cx="535" cy="1738" r="1" fill="#fff" opacity="0.73"/><circle cx="155" cy="1370" r="2" fill="#fff" opacity="0.48"/><circle cx="444" cy="1480" r="2" fill="#fff" opacity="0.69"/><circle cx="127" cy="618" r="2" fill="#fff" opacity="0.72"/><circle cx="833" cy="64" r="2" fill="#fff" opacity="0.29"/><circle cx="614" cy="1504" r="2" fill="#fff" opacity="0.44"/><circle cx="1055" cy="1776" r="3" fill="#fff" opacity="0.53"/><circle cx="364" cy="704" r="2" fill="#fff" opacity="0.71"/><circle cx="214" cy="661" r="1" fill="#fff" opacity="0.68"/><circle cx="291" cy="365" r="3" fill="#fff" opacity="0.79"/><circle cx="516" cy="273" r="3" fill="#fff" opacity="0.70"/><circle cx="1012" cy="1358" r="3" fill="#fff" opacity="0.34"/><circle cx="554" cy="1137" r="2" fill="#fff" opacity="0.40"/><circle cx="718" cy="244" r="2" fill="#fff" opacity="0.69"/><circle cx="360" cy="913" r="2" fill="#fff" opacity="0.73"/><circle cx="640" cy="752" r="2" fill="#fff" opacity="0.43"/><circle cx="531" cy="89" r="2" fill="#fff" opacity="0.68"/><circle cx="444" cy="170" r="1" fill="#fff" opacity="0.42"/><circle cx="651" cy="575" r="3" fill="#fff" opacity="0.38"/><circle cx="194" cy="1051" r="1" fill="#fff" opacity="0.66"/><circle cx="112" cy="813" r="3" fill="#fff" opacity="0.47"/><circle cx="555" cy="1424" r="3" fill="#fff" opacity="0.52"/><circle cx="302" cy="1798" r="3" fill="#fff" opacity="0.54"/><circle cx="204" cy="1329" r="1" fill="#fff" opacity="0.54"/><circle cx="878" cy="614" r="2" fill="#fff" opacity="0.33"/><circle cx="844" cy="452" r="2" fill="#fff" opacity="0.31"/><circle cx="522" cy="284" r="2" fill="#fff" opacity="0.63"/><circle cx="67" cy="1281" r="1" fill="#fff" opacity="0.33"/><circle cx="108" cy="1723" r="2" fill="#fff" opacity="0.39"/><circle cx="135" cy="1575" r="1" fill="#fff" opacity="0.62"/><circle cx="983" cy="1218" r="2" fill="#fff" opacity="0.69"/><circle cx="453" cy="1335" r="2" fill="#fff" opacity="0.79"/><circle cx="466" cy="605" r="3" fill="#fff" opacity="0.68"/><circle cx="764" cy="904" r="2" fill="#fff" opacity="0.56"/><circle cx="142" cy="1375" r="2" fill="#fff" opacity="0.51"/><circle cx="508" cy="964" r="1" fill="#fff" opacity="0.50"/><circle cx="965" cy="676" r="1" fill="#fff" opacity="0.27"/><circle cx="589" cy="854" r="1" fill="#fff" opacity="0.22"/><circle cx="767" cy="38" r="1" fill="#fff" opacity="0.61"/><circle cx="263" cy="599" r="2" fill="#fff" opacity="0.41"/><circle cx="410" cy="1609" r="3" fill="#fff" opacity="0.60"/><circle cx="595" cy="1250" r="2" fill="#fff" opacity="0.45"/><circle cx="904" cy="903" r="1" fill="#fff" opacity="0.77"/><circle cx="956" cy="1741" r="2" fill="#fff" opacity="0.58"/><circle cx="847" cy="1256" r="3" fill="#fff" opacity="0.45"/><circle cx="1052" cy="1248" r="3" fill="#fff" opacity="0.77"/><circle cx="438" cy="1401" r="2" fill="#fff" opacity="0.31"/><circle cx="155" cy="1675" r="3" fill="#fff" opacity="0.52"/><circle cx="605" cy="1151" r="2" fill="#fff" opacity="0.41"/><circle cx="811" cy="1240" r="2" fill="#fff" opacity="0.28"/><circle cx="383" cy="1" r="1" fill="#fff" opacity="0.32"/><circle cx="408" cy="781" r="1" fill="#fff" opacity="0.70"/><circle cx="861" cy="1229" r="2" fill="#fff" opacity="0.30"/><circle cx="738" cy="1172" r="2" fill="#fff" opacity="0.47"/><circle cx="83" cy="1728" r="1" fill="#fff" opacity="0.32"/><circle cx="207" cy="848" r="1" fill="#fff" opacity="0.52"/><circle cx="767" cy="1735" r="2" fill="#fff" opacity="0.65"/><circle cx="928" cy="653" r="1" fill="#fff" opacity="0.69"/><circle cx="658" cy="277" r="2" fill="#fff" opacity="0.42"/><circle cx="547" cy="1585" r="2" fill="#fff" opacity="0.43"/><circle cx="893" cy="1537" r="2" fill="#fff" opacity="0.66"/><circle cx="1023" cy="869" r="2" fill="#fff" opacity="0.33"/><circle cx="128" cy="1520" r="1" fill="#fff" opacity="0.49"/><circle cx="60" cy="732" r="3" fill="#fff" opacity="0.49"/><circle cx="433" cy="41" r="3" fill="#fff" opacity="0.31"/><circle cx="542" cy="1095" r="2" fill="#fff" opacity="0.34"/><circle cx="1024" cy="222" r="2" fill="#fff" opacity="0.44"/><circle cx="533" cy="1377" r="3" fill="#fff" opacity="0.66"/><circle cx="651" cy="901" r="3" fill="#fff" opacity="0.75"/><circle cx="243" cy="609" r="2" fill="#fff" opacity="0.54"/><circle cx="303" cy="1753" r="3" fill="#fff" opacity="0.62"/><circle cx="997" cy="1265" r="1" fill="#fff" opacity="0.61"/><circle cx="1042" cy="1330" r="1" fill="#fff" opacity="0.40"/><circle cx="371" cy="602" r="1" fill="#fff" opacity="0.64"/><circle cx="81" cy="601" r="2" fill="#fff" opacity="0.29"/><circle cx="130" cy="112" r="2" fill="#fff" opacity="0.56"/><circle cx="704" cy="1218" r="3" fill="#fff" opacity="0.68"/><circle cx="978" cy="692" r="3" fill="#fff" opacity="0.48"/><circle cx="676" cy="284" r="1" fill="#fff" opacity="0.43"/><circle cx="742" cy="1517" r="2" fill="#fff" opacity="0.53"/><circle cx="735" cy="1439" r="2" fill="#fff" opacity="0.37"/><circle cx="173" cy="836" r="2" fill="#fff" opacity="0.42"/><circle cx="930" cy="860" r="3" fill="#fff" opacity="0.42"/><circle cx="742" cy="473" r="2" fill="#fff" opacity="0.57"/><circle cx="404" cy="366" r="3" fill="#fff" opacity="0.74"/><circle cx="686" cy="1444" r="3" fill="#fff" opacity="0.49"/><circle cx="619" cy="845" r="3" fill="#fff" opacity="0.79"/><circle cx="740" cy="1484" r="3" fill="#fff" opacity="0.59"/><circle cx="592" cy="1184" r="3" fill="#fff" opacity="0.50"/><circle cx="829" cy="1689" r="2" fill="#fff" opacity="0.68"/><circle cx="772" cy="921" r="2" fill="#fff" opacity="0.60"/><circle cx="214" cy="671" r="1" fill="#fff" opacity="0.62"/><circle cx="1001" cy="1200" r="2" fill="#fff" opacity="0.30"/><circle cx="28" cy="1422" r="2" fill="#fff" opacity="0.71"/><circle cx="883" cy="449" r="2" fill="#fff" opacity="0.70"/><circle cx="955" cy="291" r="2" fill="#fff" opacity="0.61"/><circle cx="476" cy="959" r="3" fill="#fff" opacity="0.71"/><circle cx="181" cy="1281" r="2" fill="#fff" opacity="0.38"/><circle cx="270" cy="1185" r="3" fill="#fff" opacity="0.55"/><circle cx="113" cy="1645" r="3" fill="#fff" opacity="0.73"/><circle cx="450" cy="753" r="2" fill="#fff" opacity="0.74"/><circle cx="787" cy="1008" r="1" fill="#fff" opacity="0.48"/><circle cx="483" cy="187" r="2" fill="#fff" opacity="0.29"/><circle cx="917" cy="1592" r="1" fill="#fff" opacity="0.51"/><circle cx="71" cy="736" r="1" fill="#fff" opacity="0.56"/><circle cx="310" cy="1358" r="2" fill="#fff" opacity="0.71"/><circle cx="428" cy="731" r="1" fill="#fff" opacity="0.52"/><circle cx="527" cy="1662" r="2" fill="#fff" opacity="0.39"/><circle cx="685" cy="1036" r="2" fill="#fff" opacity="0.68"/><circle cx="665" cy="614" r="2" fill="#fff" opacity="0.69"/><circle cx="853" cy="1625" r="2" fill="#fff" opacity="0.22"/><circle cx="753" cy="967" r="1" fill="#fff" opacity="0.27"/><circle cx="962" cy="66" r="2" fill="#fff" opacity="0.44"/></svg>