<svg xmlns="http://www.w3.org/2000/svg" width="1920" height="1080" viewBox="0 0 1920 1080" role="img"><defs><linearGradient id="sky" x2="0" y2="1"><stop offset="0" stop-color="#d3d5dc"/><stop offset=".62" stop-color="#e8e5e1"/><stop offset="1" stop-color="#fafafa"/></linearGradient><radialGradient id="glow"><stop stop-color="#fafafa" stop-opacity=".55"/><stop offset="1" stop-color="#fafafa" stop-opacity="0"/></radialGradient><filter id="blur"><feGaussianBlur stdDeviation="25"/></filter><filter id="soft"><feGaussianBlur stdDeviation="5"/></filter></defs><g transform="translate(1272 0) scale(-1 1)"><svg x="636" width="648" height="1080" viewBox="0 0 1080 1920" preserveAspectRatio="none"><rect width="1080" height="1920" fill="url(#sky)"/><rect width="1080" height="1920" fill="url(#glow)" opacity=".25"/><rect width="1080" height="1920" fill="#f4f5fa"/><path d="M629 1669Q731 1989 1037 2944" fill="none" stroke="#b89b7f" stroke-width="4" opacity=".35"/><path d="M1043 275Q1146.5 595 1457 945" fill="none" stroke="#87929e" stroke-width="2" opacity=".35"/><path d="M166 1249Q209 1569 338 2209" fill="none" stroke="#87929e" stroke-width="3" opacity=".35"/><path d="M783 1747Q916.5 2067 1317 2750" fill="none" stroke="#b89b7f" stroke-width="2" opacity=".35"/><path d="M42 1683Q139.5 2003 432 2951" fill="none" stroke="#87929e" stroke-width="7" opacity=".35"/><path d="M-291 -13Q-243.25 307 -100 1214" fill="none" stroke="#87929e" stroke-width="5" opacity=".35"/><path d="M902 81Q997.75 401 1285 1200" fill="none" stroke="#b89b7f" stroke-width="10" opacity=".35"/><path d="M84 808Q149.25 1128 345 2148" fill="none" stroke="#87929e" stroke-width="2" opacity=".35"/><path d="M1030 1150Q1087.75 1470 1261 2382" fill="none" stroke="#87929e" stroke-width="7" opacity=".35"/><path d="M697 1157Q737.25 1477 858 2384" fill="none" stroke="#b89b7f" stroke-width="8" opacity=".35"/><path d="M45 1788Q165 2108 525 2852" fill="none" stroke="#87929e" stroke-width="3" opacity=".35"/><path d="M830 -151Q862.25 169 959 502" fill="none" stroke="#87929e" stroke-width="8" opacity=".35"/><path d="M692 -137Q807.25 183 1153 819" fill="none" stroke="#b89b7f" stroke-width="9" opacity=".35"/><path d="M-306 735Q-171.5 1055 232 1675" fill="none" stroke="#87929e" stroke-width="7" opacity=".35"/><path d="M439 1744Q500.5 2064 685 2697" fill="none" stroke="#87929e" stroke-width="3" opacity=".35"/><path d="M27 1197Q120.25 1517 400 2555" fill="none" stroke="#b89b7f" stroke-width="5" opacity=".35"/><path d="M570 1528Q659.75 1848 929 2662" fill="none" stroke="#87929e" stroke-width="11" opacity=".35"/><path d="M996 -123Q1051.25 197 1217 1335" fill="none" stroke="#87929e" stroke-width="3" opacity=".35"/><path d="M-244 120Q-106.75 440 305 796" fill="none" stroke="#b89b7f" stroke-width="10" opacity=".35"/><path d="M630 1192Q786 1512 1254 2348" fill="none" stroke="#87929e" stroke-width="7" opacity=".35"/><path d="M371 788Q461.25 1108 732 1709" fill="none" stroke="#87929e" stroke-width="6" opacity=".35"/><path d="M-334 287Q-174 607 306 1549" fill="none" stroke="#b89b7f" stroke-width="5" opacity=".35"/><path d="M-357 546Q-255.25 866 50 1555" fill="none" stroke="#87929e" stroke-width="1" opacity=".35"/><path d="M6 211Q129.75 531 501 1116" fill="none" stroke="#87929e" stroke-width="10" opacity=".35"/><path d="M749 287Q828 607 1065 1639" fill="none" stroke="#b89b7f" stroke-width="7" opacity=".35"/><path d="M220 934Q352.75 1254 751 2385" fill="none" stroke="#87929e" stroke-width="7" opacity=".35"/><path d="M641 529Q753.25 849 1090 1811" fill="none" stroke="#87929e" stroke-width="6" opacity=".35"/><path d="M400 552Q447.5 872 590 1916" fill="none" stroke="#b89b7f" stroke-width="3" opacity=".35"/></svg></g><svg x="636" width="648" height="1080" viewBox="0 0 1080 1920" preserveAspectRatio="none"><rect width="1080" height="1920" fill="url(#sky)"/><rect width="1080" height="1920" fill="url(#glow)" opacity=".25"/><rect width="1080" height="1920" fill="#f4f5fa"/><path d="M629 1669Q731 1989 1037 2944" fill="none" stroke="#b89b7f" stroke-width="4" opacity=".35"/><path d="M1043 275Q1146.5 595 1457 945" fill="none" stroke="#87929e" stroke-width="2" opacity=".35"/><path d="M166 1249Q209 1569 338 2209" fill="none" stroke="#87929e" stroke-width="3" opacity=".35"/><path d="M783 1747Q916.5 2067 1317 2750" fill="none" stroke="#b89b7f" stroke-width="2" opacity=".35"/><path d="M42 1683Q139.5 2003 432 2951" fill="none" stroke="#87929e" stroke-width="7" opacity=".35"/><path d="M-291 -13Q-243.25 307 -100 1214" fill="none" stroke="#87929e" stroke-width="5" opacity=".35"/><path d="M902 81Q997.75 401 1285 1200" fill="none" stroke="#b89b7f" stroke-width="10" opacity=".35"/><path d="M84 808Q149.25 1128 345 2148" fill="none" stroke="#87929e" stroke-width="2" opacity=".35"/><path d="M1030 1150Q1087.75 1470 1261 2382" fill="none" stroke="#87929e" stroke-width="7" opacity=".35"/><path d="M697 1157Q737.25 1477 858 2384" fill="none" stroke="#b89b7f" stroke-width="8" opacity=".35"/><path d="M45 1788Q165 2108 525 2852" fill="none" stroke="#87929e" stroke-width="3" opacity=".35"/><path d="M830 -151Q862.25 169 959 502" fill="none" stroke="#87929e" stroke-width="8" opacity=".35"/><path d="M692 -137Q807.25 183 1153 819" fill="none" stroke="#b89b7f" stroke-width="9" opacity=".35"/><path d="M-306 735Q-171.5 1055 232 1675" fill="none" stroke="#87929e" stroke-width="7" opacity=".35"/><path d="M439 1744Q500.5 2064 685 2697" fill="none" stroke="#87929e" stroke-width="3" opacity=".35"/><path d="M27 1197Q120.25 1517 400 2555" fill="none" stroke="#b89b7f" stroke-width="5" opacity=".35"/><path d="M570 1528Q659.75 1848 929 2662" fill="none" stroke="#87929e" stroke-width="11" opacity=".35"/><path d="M996 -123Q1051.25 197 1217 1335" fill="none" stroke="#87929e" stroke-width="3" opacity=".35"/><path d="M-244 120Q-106.75 440 305 796" fill="none" stroke="#b89b7f" stroke-width="10" opacity=".35"/><path d="M630 1192Q786 1512 1254 2348" fill="none" stroke="#87929e" stroke-width="7" opacity=".35"/><path d="M371 788Q461.25 1108 732 1709" fill="none" stroke="#87929e" stroke-width="6" opacity=".35"/><path d="M-334 287Q-174 607 306 1549" fill="none" stroke="#b89b7f" stroke-width="5" opacity=".35"/><path d="M-357 546Q-255.25 866 50 1555" fill="none" stroke="#87929e" stroke-width="1" opacity=".35"/><path d="M6 211Q129.75 531 501 1116" fill="none" stroke="#87929e" stroke-width="10" opacity=".35"/><path d="M749 287Q828 607 1065 1639" fill="none" stroke="#b89b7f" stroke-width="7" opacity=".35"/><path d="M220 934Q352.75 1254 751 2385" fill="none" stroke="#87929e" stroke-width="7" opacity=".35"/><path d="M641 529Q753.25 849 1090 1811" fill="none" stroke="#87929e" stroke-width="6" opacity=".35"/><path d="M400 552Q447.5 872 590 1916" fill="none" stroke="#b89b7f" stroke-width="3" opacity=".35"/></svg><g transform="translate(2568 0) scale(-1 1)"><svg x="636" width="648" height="1080" viewBox="0 0 1080 1920" preserveAspectRatio="none"><rect width="1080" height="1920" fill="url(#sky)"/><rect width="1080" height="1920" fill="url(#glow)" opacity=".25"/><rect width="1080" height="1920" fill="#f4f5fa"/><path d="M629 1669Q731 1989 1037 2944" fill="none" stroke="#b89b7f" stroke-width="4" opacity=".35"/><path d="M1043 275Q1146.5 595 1457 945" fill="none" stroke="#87929e" stroke-width="2" opacity=".35"/><path d="M166 1249Q209 1569 338 2209" fill="none" stroke="#87929e" stroke-width="3" opacity=".35"/><path d="M783 1747Q916.5 2067 1317 2750" fill="none" stroke="#b89b7f" stroke-width="2" opacity=".35"/><path d="M42 1683Q139.5 2003 432 2951" fill="none" stroke="#87929e" stroke-width="7" opacity=".35"/><path d="M-291 -13Q-243.25 307 -100 1214" fill="none" stroke="#87929e" stroke-width="5" opacity=".35"/><path d="M902 81Q997.75 401 1285 1200" fill="none" stroke="#b89b7f" stroke-width="10" opacity=".35"/><path d="M84 808Q149.25 1128 345 2148" fill="none" stroke="#87929e" stroke-width="2" opacity=".35"/><path d="M1030 1150Q1087.75 1470 1261 2382" fill="none" stroke="#87929e" stroke-width="7" opacity=".35"/><path d="M697 1157Q737.25 1477 858 2384" fill="none" stroke="#b89b7f" stroke-width="8" opacity=".35"/><path d="M45 1788Q165 2108 525 2852" fill="none" stroke="#87929e" stroke-width="3" opacity=".35"/><path d="M830 -151Q862.25 169 959 502" fill="none" stroke="#87929e" stroke-width="8" opacity=".35"/><path d="M692 -137Q807.25 183 1153 819" fill="none" stroke="#b89b7f" stroke-width="9" opacity=".35"/><path d="M-306 735Q-171.5 1055 232 1675" fill="none" stroke="#87929e" stroke-width="7" opacity=".35"/><path d="M439 1744Q500.5 2064 685 2697" fill="none" stroke="#87929e" stroke-width="3" opacity=".35"/><path d="M27 1197Q120.25 1517 400 2555" fill="none" stroke="#b89b7f" stroke-width="5" opacity=".35"/><path d="M570 1528Q659.75 1848 929 2662" fill="none" stroke="#87929e" stroke-width="11" opacity=".35"/><path d="M996 -123Q1051.25 197 1217 1335" fill="none" stroke="#87929e" stroke-width="3" opacity=".35"/><path d="M-244 120Q-106.75 440 305 796" fill="none" stroke="#b89b7f" stroke-width="10" opacity=".35"/><path d="M630 1192Q786 1512 1254 2348" fill="none" stroke="#87929e" stroke-width="7" opacity=".35"/><path d="M371 788Q461.25 1108 732 1709" fill="none" stroke="#87929e" stroke-width="6" opacity=".35"/><path d="M-334 287Q-174 607 306 1549" fill="none" stroke="#b89b7f" stroke-width="5" opacity=".35"/><path d="M-357 546Q-255.25 866 50 1555" fill="none" stroke="#87929e" stroke-width="1" opacity=".35"/><path d="M6 211Q129.75 531 501 1116" fill="none" stroke="#87929e" stroke-width="10" opacity=".35"/><path d="M749 287Q828 607 1065 1639" fill="none" stroke="#b89b7f" stroke-width="7" opacity=".35"/><path d="M220 934Q352.75 1254 751 2385" fill="none" stroke="#87929e" stroke-width="7" opacity=".35"/><path d="M641 529Q753.25 849 1090 1811" fill="none" stroke="#87929e" stroke-width="6" opacity=".35"/><path d="M400 552Q447.5 872 590 1916" fill="none" stroke="#b89b7f" stroke-width="3" opacity=".35"/></svg></g></svg>