<svg xmlns="http://www.w3.org/2000/svg" width="1080" height="1920" viewBox="0 0 1080 1920" role="img"><defs><linearGradient id="sky" x2="0" y2="1"><stop offset="0" stop-color="#493020"/><stop offset=".62" stop-color="#ac8154"/><stop offset="1" stop-color="#e8ca93"/></linearGradient><radialGradient id="glow"><stop stop-color="#e8ca93" stop-opacity=".55"/><stop offset="1" stop-color="#e8ca93" stop-opacity="0"/></radialGradient><filter id="blur"><feGaussianBlur stdDeviation="25"/></filter><filter id="soft"><feGaussianBlur stdDeviation="5"/></filter></defs><rect width="1080" height="1920" fill="url(#sky)"/><rect width="1080" height="1920" fill="url(#glow)" opacity=".25"/><rect width="1080" height="1920" fill="#ac8154"/><ellipse cx="814" cy="1351" rx="41" ry="27" fill="#423127" opacity=".8" transform="rotate(144 814 1351)"/><ellipse cx="521" cy="160" rx="31" ry="20" fill="#423127" opacity=".8" transform="rotate(81 521 160)"/><ellipse cx="1070" cy="111" rx="20" ry="21" fill="#423127" opacity=".8" transform="rotate(88 1070 111)"/><ellipse cx="9" cy="1280" rx="17" ry="40" fill="#423127" opacity=".8" transform="rotate(10 9 1280)"/><ellipse cx="816" cy="675" rx="22" ry="40" fill="#423127" opacity=".8" transform="rotate(13 816 675)"/><ellipse cx="244" cy="1710" rx="30" ry="22" fill="#423127" opacity=".8" transform="rotate(18 244 1710)"/><ellipse cx="811" cy="449" rx="43" ry="30" fill="#423127" opacity=".8" transform="rotate(34 811 449)"/><ellipse cx="110" cy="426" rx="57" ry="28" fill="#423127" opacity=".8" transform="rotate(136 110 426)"/><ellipse cx="72" cy="623" rx="53" ry="16" fill="#423127" opacity=".8" transform="rotate(164 72 623)"/><ellipse cx="319" cy="1678" rx="57" ry="18" fill="#423127" opacity=".8" transform="rotate(28 319 1678)"/><ellipse cx="654" cy="1029" rx="54" ry="23" fill="#423127" opacity=".8" transform="rotate(45 654 1029)"/><ellipse cx="594" cy="518" rx="20" ry="22" fill="#423127" opacity=".8" transform="rotate(30 594 518)"/><ellipse cx="219" cy="483" rx="32" ry="13" fill="#423127" opacity=".8" transform="rotate(3 219 483)"/><ellipse cx="148" cy="1555" rx="47" ry="44" fill="#423127" opacity=".8" transform="rotate(156 148 1555)"/><ellipse cx="489" cy="822" rx="57" ry="35" fill="#423127" opacity=".8" transform="rotate(106 489 822)"/><ellipse cx="657" cy="1164" rx="36" ry="26" fill="#423127" opacity=".8" transform="rotate(68 657 1164)"/><ellipse cx="294" cy="1499" rx="49" ry="44" fill="#423127" opacity=".8" transform="rotate(96 294 1499)"/><ellipse cx="1084" cy="646" rx="45" ry="37" fill="#423127" opacity=".8" transform="rotate(70 1084 646)"/><ellipse cx="757" cy="-3" rx="47" ry="28" fill="#423127" opacity=".8" transform="rotate(176 757 -3)"/><ellipse cx="1107" cy="951" rx="14" ry="21" fill="#423127" opacity=".8" transform="rotate(132 1107 951)"/><ellipse cx="394" cy="1821" rx="60" ry="43" fill="#423127" opacity=".8" transform="rotate(158 394 1821)"/><ellipse cx="880" cy="1202" rx="52" ry="31" fill="#423127" opacity=".8" transform="rotate(91 880 1202)"/><ellipse cx="881" cy="929" rx="43" ry="29" fill="#423127" opacity=".8" transform="rotate(88 881 929)"/><ellipse cx="1099" cy="317" rx="46" ry="41" fill="#423127" opacity=".8" transform="rotate(105 1099 317)"/><ellipse cx="982" cy="1042" rx="17" ry="31" fill="#423127" opacity=".8" transform="rotate(98 982 1042)"/><ellipse cx="462" cy="1514" rx="26" ry="20" fill="#423127" opacity=".8" transform="rotate(61 462 1514)"/><ellipse cx="605" cy="943" rx="38" ry="37" fill="#423127" opacity=".8" transform="rotate(86 605 943)"/><ellipse cx="1041" cy="1926" rx="15" ry="12" fill="#423127" opacity=".8" transform="rotate(62 1041 1926)"/><ellipse cx="489" cy="1011" rx="39" ry="44" fill="#423127" opacity=".8" transform="rotate(72 489 1011)"/><ellipse cx="792" cy="148" rx="18" ry="14" fill="#423127" opacity=".8" transform="rotate(152 792 148)"/><ellipse cx="798" cy="1318" rx="59" ry="25" fill="#423127" opacity=".8" transform="rotate(21 798 1318)"/><ellipse cx="987" cy="1291" rx="26" ry="14" fill="#423127" opacity=".8" transform="rotate(112 987 1291)"/><ellipse cx="1003" cy="1950" rx="50" ry="17" fill="#423127" opacity=".8" transform="rotate(63 1003 1950)"/><ellipse cx="973" cy="1327" rx="18" ry="25" fill="#423127" opacity=".8" transform="rotate(16 973 1327)"/><ellipse cx="503" cy="176" rx="18" ry="17" fill="#423127" opacity=".8" transform="rotate(19 503 176)"/><ellipse cx="93" cy="456" rx="29" ry="45" fill="#423127" opacity=".8" transform="rotate(113 93 456)"/><ellipse cx="170" cy="1329" rx="16" ry="27" fill="#423127" opacity=".8" transform="rotate(79 170 1329)"/><ellipse cx="1029" cy="81" rx="25" ry="24" fill="#423127" opacity=".8" transform="rotate(103 1029 81)"/><ellipse cx="1040" cy="705" rx="46" ry="32" fill="#423127" opacity=".8" transform="rotate(38 1040 705)"/><ellipse cx="722" cy="852" rx="52" ry="37" fill="#423127" opacity=".8" transform="rotate(43 722 852)"/><ellipse cx="201" cy="1484" rx="29" ry="23" fill="#423127" opacity=".8" transform="rotate(124 201 1484)"/><ellipse cx="531" cy="1525" rx="50" ry="24" fill="#423127" opacity=".8" transform="rotate(21 531 1525)"/><ellipse cx="831" cy="1336" rx="28" ry="28" fill="#423127" opacity=".8" transform="rotate(91 831 1336)"/><ellipse cx="537" cy="1204" rx="29" ry="39" fill="#423127" opacity=".8" transform="rotate(63 537 1204)"/><ellipse cx="132" cy="749" rx="33" ry="26" fill="#423127" opacity=".8" transform="rotate(54 132 749)"/><ellipse cx="515" cy="413" rx="53" ry="20" fill="#423127" opacity=".8" transform="rotate(17 515 413)"/><ellipse cx="302" cy="342" rx="40" ry="16" fill="#423127" opacity=".8" transform="rotate(113 302 342)"/><ellipse cx="681" cy="1152" rx="14" ry="38" fill="#423127" opacity=".8" transform="rotate(76 681 1152)"/><ellipse cx="517" cy="813" rx="18" ry="21" fill="#423127" opacity=".8" transform="rotate(1 517 813)"/><ellipse cx="429" cy="78" rx="34" ry="43" fill="#423127" opacity=".8" transform="rotate(5 429 78)"/><ellipse cx="-27" cy="266" rx="51" ry="19" fill="#423127" opacity=".8" transform="rotate(82 -27 266)"/><ellipse cx="265" cy="1831" rx="41" ry="24" fill="#423127" opacity=".8" transform="rotate(63 265 1831)"/><ellipse cx="969" cy="125" rx="22" ry="42" fill="#423127" opacity=".8" transform="rotate(120 969 125)"/><ellipse cx="401" cy="1860" rx="54" ry="29" fill="#423127" opacity=".8" transform="rotate(133 401 1860)"/><ellipse cx="251" cy="94" rx="51" ry="25" fill="#423127" opacity=".8" transform="rotate(163 251 94)"/><ellipse cx="139" cy="1078" rx="42" ry="15" fill="#423127" opacity=".8" transform="rotate(5 139 1078)"/><ellipse cx="900" cy="1122" rx="49" ry="44" fill="#423127" opacity=".8" transform="rotate(78 900 1122)"/><ellipse cx="-4" cy="1557" rx="57" ry="23" fill="#423127" opacity=".8" transform="rotate(126 -4 1557)"/><ellipse cx="291" cy="1196" rx="28" ry="17" fill="#423127" opacity=".8" transform="rotate(142 291 1196)"/><ellipse cx="425" cy="1253" rx="14" ry="32" fill="#423127" opacity=".8" transform="rotate(52 425 1253)"/><ellipse cx="409" cy="94" rx="19" ry="22" fill="#423127" opacity=".8" transform="rotate(14 409 94)"/><ellipse cx="903" cy="240" rx="58" ry="13" fill="#423127" opacity=".8" transform="rotate(43 903 240)"/><ellipse cx="436" cy="76" rx="45" ry="39" fill="#423127" opacity=".8" transform="rotate(177 436 76)"/><ellipse cx="522" cy="613" rx="22" ry="17" fill="#423127" opacity=".8" transform="rotate(21 522 613)"/><ellipse cx="850" cy="336" rx="51" ry="43" fill="#423127" opacity=".8" transform="rotate(49 850 336)"/><ellipse cx="735" cy="1596" rx="49" ry="35" fill="#423127" opacity=".8" transform="rotate(120 735 1596)"/><ellipse cx="499" cy="881" rx="32" ry="41" fill="#423127" opacity=".8" transform="rotate(58 499 881)"/><ellipse cx="316" cy="1078" rx="24" ry="43" fill="#423127" opacity=".8" transform="rotate(32 316 1078)"/><ellipse cx="305" cy="585" rx="21" ry="26" fill="#423127" opacity=".8" transform="rotate(172 305 585)"/><ellipse cx="767" cy="199" rx="43" ry="15" fill="#423127" opacity=".8" transform="rotate(103 767 199)"/><ellipse cx="87" cy="1931" rx="59" ry="18" fill="#423127" opacity=".8" transform="rotate(166 87 1931)"/><ellipse cx="482" cy="352" rx="55" ry="25" fill="#423127" opacity=".8" transform="rotate(36 482 352)"/><ellipse cx="33" cy="361" rx="18" ry="21" fill="#423127" opacity=".8" transform="rotate(13 33 361)"/><ellipse cx="550" cy="1167" rx="52" ry="13" fill="#423127" opacity=".8" transform="rotate(151 550 1167)"/><ellipse cx="641" cy="77" rx="56" ry="40" fill="#423127" opacity=".8" transform="rotate(165 641 77)"/><ellipse cx="41" cy="245" rx="35" ry="22" fill="#423127" opacity=".8" transform="rotate(133 41 245)"/><ellipse cx="590" cy="952" rx="18" ry="24" fill="#423127" opacity=".8" transform="rotate(43 590 952)"/><ellipse cx="513" cy="1342" rx="17" ry="23" fill="#423127" opacity=".8" transform="rotate(12 513 1342)"/><ellipse cx="8" cy="1810" rx="56" ry="34" fill="#423127" opacity=".8" transform="rotate(133 8 1810)"/><ellipse cx="1011" cy="163" rx="48" ry="33" fill="#423127" opacity=".8" transform="rotate(43 1011 163)"/><ellipse cx="827" cy="1090" rx="37" ry="36" fill="#423127" opacity=".8" transform="rotate(48 827 1090)"/><ellipse cx="877" cy="1192" rx="15" ry="35" fill="#423127" opacity=".8" transform="rotate(96 877 1192)"/><ellipse cx="306" cy="793" rx="53" ry="36" fill="#423127" opacity=".8" transform="rotate(96 306 793)"/><ellipse cx="671" cy="670" rx="42" ry="24" fill="#423127" opacity=".8" transform="rotate(107 671 670)"/><ellipse cx="715" cy="714" rx="42" ry="22" fill="#423127" opacity=".8" transform="rotate(91 715 714)"/><ellipse cx="335" cy="319" rx="58" ry="28" fill="#423127" opacity=".8" transform="rotate(152 335 319)"/><ellipse cx="1098" cy="801" rx="39" ry="13" fill="#423127" opacity=".8" transform="rotate(44 1098 801)"/><ellipse cx="75" cy="940" rx="17" ry="32" fill="#423127" opacity=".8" transform="rotate(88 75 940)"/><ellipse cx="97" cy="960" rx="37" ry="33" fill="#423127" opacity=".8" transform="rotate(68 97 960)"/><ellipse cx="482" cy="1227" rx="45" ry="33" fill="#423127" opacity=".8" transform="rotate(153 482 1227)"/><ellipse cx="327" cy="1192" rx="58" ry="44" fill="#423127" opacity=".8" transform="rotate(76 327 1192)"/><ellipse cx="774" cy="156" rx="43" ry="42" fill="#423127" opacity=".8" transform="rotate(46 774 156)"/><ellipse cx="585" cy="924" rx="17" ry="41" fill="#423127" opacity=".8" transform="rotate(133 585 924)"/><ellipse cx="639" cy="965" rx="58" ry="28" fill="#423127" opacity=".8" transform="rotate(106 639 965)"/><ellipse cx="686" cy="1125" rx="56" ry="18" fill="#423127" opacity=".8" transform="rotate(178 686 1125)"/><ellipse cx="731" cy="1527" rx="30" ry="30" fill="#423127" opacity=".8" transform="rotate(21 731 1527)"/><ellipse cx="1003" cy="115" rx="16" ry="31" fill="#423127" opacity=".8" transform="rotate(138 1003 115)"/><ellipse cx="1029" cy="257" rx="43" ry="43" fill="#423127" opacity=".8" transform="rotate(51 1029 257)"/><ellipse cx="-1" cy="18" rx="49" ry="39" fill="#423127" opacity=".8" transform="rotate(52 -1 18)"/><ellipse cx="709" cy="264" rx="24" ry="16" fill="#423127" opacity=".8" transform="rotate(162 709 264)"/><ellipse cx="997" cy="214" rx="50" ry="32" fill="#423127" opacity=".8" transform="rotate(109 997 214)"/><ellipse cx="656" cy="802" rx="20" ry="45" fill="#423127" opacity=".8" transform="rotate(106 656 802)"/><ellipse cx="318" cy="-10" rx="37" ry="43" fill="#423127" opacity=".8" transform="rotate(48 318 -10)"/><ellipse cx="771" cy="718" rx="28" ry="40" fill="#423127" opacity=".8" transform="rotate(123 771 718)"/><ellipse cx="363" cy="220" rx="28" ry="38" fill="#423127" opacity=".8" transform="rotate(172 363 220)"/><ellipse cx="446" cy="1573" rx="33" ry="16" fill="#423127" opacity=".8" transform="rotate(131 446 1573)"/><ellipse cx="64" cy="651" rx="22" ry="27" fill="#423127" opacity=".8" transform="rotate(110 64 651)"/><ellipse cx="1010" cy="1450" rx="59" ry="16" fill="#423127" opacity=".8" transform="rotate(178 1010 1450)"/><ellipse cx="163" cy="1351" rx="52" ry="14" fill="#423127" opacity=".8" transform="rotate(55 163 1351)"/><ellipse cx="829" cy="1416" rx="18" ry="40" fill="#423127" opacity=".8" transform="rotate(23 829 1416)"/><ellipse cx="1086" cy="879" rx="41" ry="20" fill="#423127" opacity=".8" transform="rotate(28 1086 879)"/><ellipse cx="409" cy="370" rx="30" ry="37" fill="#423127" opacity=".8" transform="rotate(70 409 370)"/><ellipse cx="597" cy="941" rx="37" ry="30" fill="#423127" opacity=".8" transform="rotate(94 597 941)"/><ellipse cx="347" cy="1932" rx="57" ry="41" fill="#423127" opacity=".8" transform="rotate(134 347 1932)"/><ellipse cx="68" cy="934" rx="50" ry="36" fill="#423127" opacity=".8" transform="rotate(169 68 934)"/><ellipse cx="548" cy="1284" rx="41" ry="25" fill="#423127" opacity=".8" transform="rotate(128 548 1284)"/><ellipse cx="-14" cy="606" rx="32" ry="35" fill="#423127" opacity=".8" transform="rotate(178 -14 606)"/><ellipse cx="1000" cy="1148" rx="14" ry="39" fill="#423127" opacity=".8" transform="rotate(30 1000 1148)"/><ellipse cx="168" cy="723" rx="50" ry="34" fill="#423127" opacity=".8" transform="rotate(116 168 723)"/><ellipse cx="620" cy="1710" rx="33" ry="19" fill="#423127" opacity=".8" transform="rotate(32 620 1710)"/><ellipse cx="657" cy="1000" rx="55" ry="20" fill="#423127" opacity=".8" transform="rotate(95 657 1000)"/><ellipse cx="113" cy="639" rx="23" ry="28" fill="#423127" opacity=".8" transform="rotate(30 113 639)"/><ellipse cx="348" cy="448" rx="35" ry="38" fill="#423127" opacity=".8" transform="rotate(61 348 448)"/><ellipse cx="190" cy="1715" rx="41" ry="22" fill="#423127" opacity=".8" transform="rotate(36 190 1715)"/><ellipse cx="449" cy="1491" rx="57" ry="37" fill="#423127" opacity=".8" transform="rotate(133 449 1491)"/><ellipse cx="91" cy="1767" rx="29" ry="44" fill="#423127" opacity=".8" transform="rotate(63 91 1767)"/><ellipse cx="-26" cy="445" rx="35" ry="17" fill="#423127" opacity=".8" transform="rotate(146 -26 445)"/><ellipse cx="137" cy="774" rx="54" ry="32" fill="#423127" opacity=".8" transform="rotate(109 137 774)"/><ellipse cx="132" cy="1832" rx="49" ry="21" fill="#423127" opacity=".8" transform="rotate(100 132 1832)"/><ellipse cx="460" cy="837" rx="52" ry="32" fill="#423127" opacity=".8" transform="rotate(180 460 837)"/><ellipse cx="673" cy="1474" rx="53" ry="31" fill="#423127" opacity=".8" transform="rotate(147 673 1474)"/><ellipse cx="539" cy="1598" rx="29" ry="40" fill="#423127" opacity=".8" transform="rotate(104 539 1598)"/><ellipse cx="331" cy="1396" rx="32" ry="38" fill="#423127" opacity=".8" transform="rotate(21 331 1396)"/><ellipse cx="703" cy="1399" rx="36" ry="34" fill="#423127" opacity=".8" transform="rotate(58 703 1399)"/><ellipse cx="267" cy="1293" rx="41" ry="14" fill="#423127" opacity=".8" transform="rotate(14 267 1293)"/><ellipse cx="206" cy="805" rx="14" ry="35" fill="#423127" opacity=".8" transform="rotate(100 206 805)"/><ellipse cx="576" cy="-29" rx="36" ry="41" fill="#423127" opacity=".8" transform="rotate(46 576 -29)"/><ellipse cx="521" cy="1019" rx="19" ry="44" fill="#423127" opacity=".8" transform="rotate(116 521 1019)"/><ellipse cx="96" cy="1662" rx="20" ry="14" fill="#423127" opacity=".8" transform="rotate(156 96 1662)"/><ellipse cx="595" cy="243" rx="25" ry="17" fill="#423127" opacity=".8" transform="rotate(152 595 243)"/><ellipse cx="858" cy="630" rx="43" ry="44" fill="#423127" opacity=".8" transform="rotate(44 858 630)"/><ellipse cx="388" cy="1451" rx="26" ry="43" fill="#423127" opacity=".8" transform="rotate(62 388 1451)"/><ellipse cx="615" cy="783" rx="14" ry="35" fill="#423127" opacity=".8" transform="rotate(89 615 783)"/><ellipse cx="11" cy="17" rx="50" ry="33" fill="#423127" opacity=".8" transform="rotate(137 11 17)"/><ellipse cx="645" cy="1851" rx="39" ry="30" fill="#423127" opacity=".8" transform="rotate(90 645 1851)"/><ellipse cx="981" cy="520" rx="30" ry="18" fill="#423127" opacity=".8" transform="rotate(79 981 520)"/><ellipse cx="294" cy="197" rx="40" ry="19" fill="#423127" opacity=".8" transform="rotate(8 294 197)"/><ellipse cx="773" cy="96" rx="33" ry="26" fill="#423127" opacity=".8" transform="rotate(92 773 96)"/><ellipse cx="868" cy="195" rx="51" ry="29" fill="#423127" opacity=".8" transform="rotate(89 868 195)"/><ellipse cx="380" cy="1769" rx="16" ry="39" fill="#423127" opacity=".8" transform="rotate(44 380 1769)"/><ellipse cx="635" cy="161" rx="45" ry="42" fill="#423127" opacity=".8" transform="rotate(25 635 161)"/><ellipse cx="1007" cy="278" rx="42" ry="41" fill="#423127" opacity=".8" transform="rotate(23 1007 278)"/><ellipse cx="981" cy="1591" rx="56" ry="30" fill="#423127" opacity=".8" transform="rotate(10 981 1591)"/><ellipse cx="730" cy="1180" rx="40" ry="29" fill="#423127" opacity=".8" transform="rotate(87 730 1180)"/><ellipse cx="1001" cy="1605" rx="30" ry="12" fill="#423127" opacity=".8" transform="rotate(114 1001 1605)"/><ellipse cx="2" cy="628" rx="37" ry="32" fill="#423127" opacity=".8" transform="rotate(24 2 628)"/><ellipse cx="594" cy="183" rx="48" ry="25" fill="#423127" opacity=".8" transform="rotate(128 594 183)"/><ellipse cx="1006" cy="1867" rx="58" ry="34" fill="#423127" opacity=".8" transform="rotate(122 1006 1867)"/><ellipse cx="302" cy="1594" rx="57" ry="20" fill="#423127" opacity=".8" transform="rotate(93 302 1594)"/><ellipse cx="774" cy="1069" rx="57" ry="25" fill="#423127" opacity=".8" transform="rotate(158 774 1069)"/><ellipse cx="630" cy="986" rx="18" ry="42" fill="#423127" opacity=".8" transform="rotate(157 630 986)"/><ellipse cx="716" cy="1204" rx="25" ry="44" fill="#423127" opacity=".8" transform="rotate(149 716 1204)"/><ellipse cx="74" cy="1369" rx="33" ry="13" fill="#423127" opacity=".8" transform="rotate(62 74 1369)"/><ellipse cx="583" cy="1270" rx="59" ry="21" fill="#423127" opacity=".8" transform="rotate(103 583 1270)"/><ellipse cx="400" cy="766" rx="39" ry="28" fill="#423127" opacity=".8" transform="rotate(178 400 766)"/><ellipse cx="859" cy="294" rx="36" ry="33" fill="#423127" opacity=".8" transform="rotate(118 859 294)"/><ellipse cx="341" cy="1023" rx="48" ry="18" fill="#423127" opacity=".8" transform="rotate(14 341 1023)"/><ellipse cx="342" cy="488" rx="43" ry="37" fill="#423127" opacity=".8" transform="rotate(92 342 488)"/><ellipse cx="935" cy="415" rx="39" ry="32" fill="#423127" opacity=".8" transform="rotate(161 935 415)"/><ellipse cx="168" cy="1029" rx="56" ry="13" fill="#423127" opacity=".8" transform="rotate(163 168 1029)"/></svg>